<svg id="Layer_1" data-name="Layer 1" xmlns="http://www.w3.org/2000/svg" viewBox="0 0 202 64"><defs><style>.cls-1{fill:#515150;}.cls-2{fill:none;stroke:#515150;stroke-miterlimit:10;stroke-width:1.5px;}</style></defs><title>Artboard 1</title><path class="cls-1" d="M138.69,16.7H135.2V13.58h3.49Zm-14,14.71A1.4,1.4,0,1,1,123.3,30,1.4,1.4,0,0,1,124.69,31.41Zm-.43-10.58,6.68,12.47a12.33,12.33,0,0,0-2.57,3.17,8.34,8.34,0,0,0-1.21,3.09c0,.13-.29.36-.45.37-2.23,0-4.45,0-6.69,0-.46,0-.48-.3-.53-.64A8.6,8.6,0,0,0,118,35.82c-.63-1-1.59-1.68-2.21-2.5,2.18-4,4.29-8.23,6.58-12.42v8c-1.4.42-1.88,1.51-1.62,3.26a2.67,2.67,0,0,0,5.17.06c.27-1.86-.31-2.94-1.71-3.33C124.22,26.26,124.1,23.61,124.27,20.83Zm4.55,20.76v2.27H117.76V41.59ZM111.38,16.7h-3.49V13.58h3.49Zm29-3.76c0-.63-.38-1-1.06-1h-4.62c-.79,0-1.1.24-1.1,1,0,.44,0,.8,0,1.27H113.07c0-.57,0-.91,0-1.37a.94.94,0,0,0-1-.93c-1.57,0-3.13,0-4.7,0-.71,0-1,.33-1,1,0,1.51,0,3,0,4.53,0,.64.32.95,1,1q2.35,0,4.7,0c.78,0,1.07-.39,1.08-1.13,0-.46,0-1,0-1.46h9.47c0,.47-8.16,16.58-8.52,17.21a.76.76,0,0,0,.07.67,6,6,0,0,0,.93.88,9.61,9.61,0,0,1,2.33,3,15.38,15.38,0,0,1,.85,2.22c-.26,0-.49.08-.72.09-1.18,0-1.36.23-1.36,1.33v3.18c0,.85.3,1.14,1.19,1.14h12.1c.92,0,1.19-.26,1.19-1.12,0-1.15,0-2.3,0-3.44,0-.74-.34-1-1.12-1.07-.31,0-.63-.07-1-.11.46-1,.83-1.85,1.27-2.68a9,9,0,0,1,1.09-1.65c.51-.59,1.15-1.08,1.67-1.66a1,1,0,0,0,.19-.82c-.5-.91-8.45-16.72-8.64-17.19h9.58c0,.57,0,1.12,0,1.61a.88.88,0,0,0,.94.93c1.64,0,3.28,0,4.91,0a.82.82,0,0,0,.93-.88C140.42,16,140.41,14.48,140.41,12.95Z"/><path class="cls-1" d="M30.31,25.3a.68.68,0,0,0-.68.68v3.83H28.17V12.43l.57.41c.42.71,2.85,5.1,3,12.46H30.31ZM28.17,43.37V31.19h1.46V43.37Zm1.48-31.56-1.76-1.27a.68.68,0,0,0-1.08.55v33a.68.68,0,0,0,.68.68h2.82a.68.68,0,0,0,.68-.68V26.67h1.43a.68.68,0,0,0,.68-.68c0-8.85-3.15-13.79-3.29-14A.66.66,0,0,0,29.65,11.82Z"/><path class="cls-1" d="M43.07,23H42.3a.68.68,0,0,0-.68.68v6.1H40.16v-6.1a.68.68,0,0,0-.68-.68h-.77a1.59,1.59,0,0,1-1.59-1.56l.85-9.7h.82v5.39a.68.68,0,1,0,1.37,0V11.78h1.32v5.39a.68.68,0,1,0,1.37,0V11.78h1l.85,9.7A1.59,1.59,0,0,1,43.07,23Zm-2.9,20.34V31.19h1.46V43.37Zm5.85-22L45.11,11a.68.68,0,0,0-.68-.62H37.35a.68.68,0,0,0-.68.62l-.91,10.35a.56.56,0,0,0,0,.06,3,3,0,0,0,3,3h.08V44.06a.68.68,0,0,0,.68.68H42.3a.68.68,0,0,0,.68-.68V24.4h.08a3,3,0,0,0,3-3S46,21.41,46,21.39Z"/><path class="cls-1" d="M19.06,23.46a.68.68,0,0,0-.49.83.69.69,0,0,0,.16.29v5.23H17.27V24.63a.67.67,0,0,0-.35-1.13,4.57,4.57,0,0,1-3.57-4.44c0-2.8,2.25-7.62,4.54-7.62s4.55,4.82,4.55,7.62A4.54,4.54,0,0,1,19.06,23.46ZM17.28,43.37V31.19h1.46V43.37Zm.63-33.29c-3.41,0-5.91,5.91-5.91,9a5.94,5.94,0,0,0,3.92,5.56V44.05a.68.68,0,0,0,.68.68h2.82a.68.68,0,0,0,.68-.68V24.55a5.91,5.91,0,0,0,3.72-5.48C23.82,16,21.32,10.08,17.91,10.08Z"/><path class="cls-1" d="M88.5,16a15.86,15.86,0,1,0-.72,24.24.83.83,0,0,0-.7-1.47A11,11,0,0,1,73.8,30a.83.83,0,1,0-1.64.3A12.68,12.68,0,0,0,83.91,40.7a14,14,0,0,1-6,1.32,14.19,14.19,0,1,1,6.72-26.69,12.71,12.71,0,0,0-9.49,4.26A.83.83,0,0,0,76.4,20.7a11,11,0,0,1,11.31-3.27A.84.84,0,0,0,88.5,16Z"/><path class="cls-1" d="M75.82,31a.83.83,0,0,0,.77.52h4.68a.83.83,0,1,0,0-1.67H78.61L81.52,27a.84.84,0,0,0-.59-1.43H76.59a.84.84,0,0,0,0,1.67h2.33L76,30.12A.83.83,0,0,0,75.82,31Z"/><path class="cls-1" d="M87.61,32.42h-2l2.29-2.29a.84.84,0,0,0-.59-1.43H83.6a.84.84,0,0,0,0,1.67h1.71L83,32.67a.83.83,0,0,0,.59,1.42h4a.84.84,0,1,0,0-1.67Z"/><path class="cls-1" d="M67.47,28a.83.83,0,0,0,.77.52h6.34a.84.84,0,1,0,0-1.67H70.26l4.47-4.47A.84.84,0,0,0,74.13,21H68.24a.84.84,0,0,0,0,1.67h3.87l-4.46,4.47A.83.83,0,0,0,67.47,28Z"/><path class="cls-1" d="M158,37.74h0a.73.73,0,0,1,.59.27c5,5.23,10.82,6.72,17.17,4.42,5-1.8,8.2-5.45,9.6-10.9H181.2a.44.44,0,0,0-.23.27h0a11.22,11.22,0,0,1-19.47,3,.89.89,0,0,1,0-1.13l2.21-2.21h-8.43V40l2.12-2.07A.92.92,0,0,1,158,37.74Zm12.08,7.39c-4.37,0-8.43-1.8-12.12-5.41l-2.25,2.16a1.86,1.86,0,0,1-1.08.5,1.11,1.11,0,0,1-1.08-1.26V31.34a1.45,1.45,0,0,1,1.26-1.44h10a1.36,1.36,0,0,1,1.17.81,1.19,1.19,0,0,1-.36,1.31l-2.39,2.43a9.52,9.52,0,0,0,16.13-3.2,0,0,0,0,1,0,0,2,2,0,0,1,1.76-1.26h4.19a1.76,1.76,0,0,1,1.4.68,1.55,1.55,0,0,1,.23,1.35c-1.53,6-5.09,10.1-10.64,12.12A20.24,20.24,0,0,1,170.06,45.13ZM155.33,24.62h4.15s.14,0,.27-.27a11.22,11.22,0,0,1,19.47-3,.89.89,0,0,1,0,1.13L177,24.67h8.43V16.11l-2.12,2.07a1.06,1.06,0,0,1-.59.23.73.73,0,0,1-.59-.27c-5-5.23-10.82-6.72-17.17-4.42C159.92,15.52,156.73,19.22,155.33,24.62Zm4.15,1.67h-4.19a1.76,1.76,0,0,1-1.4-.68,1.55,1.55,0,0,1-.23-1.35c1.53-6,5.14-10.1,10.68-12.08,6.76-2.43,13-1,18.34,4.24l2.25-2.16a1.87,1.87,0,0,1,1.08-.5A1.11,1.11,0,0,1,187.1,15v9.83a1.45,1.45,0,0,1-1.26,1.44h-10a1.36,1.36,0,0,1-1.17-.81,1.19,1.19,0,0,1,.36-1.31l2.39-2.43a9.52,9.52,0,0,0-16.13,3.2A2,2,0,0,1,159.47,26.29Z"/><rect class="cls-2" x="8.1" y="6.44" width="42.46" height="42.46"/><rect class="cls-2" x="55.19" y="6.54" width="42.46" height="42.46"/><rect class="cls-2" x="102.12" y="6.44" width="42.46" height="42.46"/><rect class="cls-2" x="149.05" y="6.44" width="42.46" height="42.46"/><path class="cls-1" d="M66.93,56.88a1.89,1.89,0,0,1-.66,1.52,2.74,2.74,0,0,1-1.83.56,4.09,4.09,0,0,1-1.91-.43V57.12a7.58,7.58,0,0,0,1.16.45,3.24,3.24,0,0,0,.86.13,1.18,1.18,0,0,0,.72-.19.67.67,0,0,0,.25-.57.65.65,0,0,0-.11-.37,1.26,1.26,0,0,0-.33-.31,8,8,0,0,0-.87-.48,4.12,4.12,0,0,1-.93-.59,2.21,2.21,0,0,1-.49-.66,2,2,0,0,1-.18-.88,1.9,1.9,0,0,1,.61-1.49,2.43,2.43,0,0,1,1.68-.54,3.75,3.75,0,0,1,1,.13,6.62,6.62,0,0,1,1,.37l-.46,1.18a6.5,6.5,0,0,0-.89-.33,2.72,2.72,0,0,0-.69-.09.88.88,0,0,0-.62.2.74.74,0,0,0-.13.87,1,1,0,0,0,.28.29,8.48,8.48,0,0,0,.91.5,3.61,3.61,0,0,1,1.3,1A2,2,0,0,1,66.93,56.88Z"/><path class="cls-1" d="M68.15,58.86V51.72h1.43v5.89h2.73v1.25Z"/><path class="cls-1" d="M77.37,58.86H73.49V51.72h3.88V53H74.92v1.57H77.2v1.24H74.92v1.84h2.45Z"/><path class="cls-1" d="M82.66,58.86H78.78V51.72h3.88V53H80.21v1.57h2.28v1.24H80.21v1.84h2.45Z"/><path class="cls-1" d="M88.72,54A2.25,2.25,0,0,1,88,55.71a2.8,2.8,0,0,1-1.93.61H85.5v2.54H84.07V51.72h2.15a2.75,2.75,0,0,1,1.87.56A2.1,2.1,0,0,1,88.72,54ZM85.5,55.08H86a1.5,1.5,0,0,0,1-.28,1,1,0,0,0,.33-.8,1,1,0,0,0-.27-.79,1.23,1.23,0,0,0-.86-.25H85.5Z"/><path class="cls-1" d="M112.68,55.22A3.28,3.28,0,0,1,109,58.86h-1.89V51.72h2.1a3.4,3.4,0,0,1,2.54.92A3.52,3.52,0,0,1,112.68,55.22Zm-1.47,0q0-2.3-1.9-2.3h-.75v4.65h.61Q111.21,57.61,111.21,55.26Z"/><path class="cls-1" d="M117.92,58.86h-3.85V51.72h3.85V53h-2.43v1.57h2.26v1.24h-2.26v1.84h2.43Z"/><path class="cls-1" d="M123.26,56.88a1.9,1.9,0,0,1-.65,1.52,2.71,2.71,0,0,1-1.81.56,4,4,0,0,1-1.89-.43V57.12a7.49,7.49,0,0,0,1.15.45,3.19,3.19,0,0,0,.86.13,1.16,1.16,0,0,0,.71-.19.67.67,0,0,0,.25-.57.65.65,0,0,0-.11-.37,1.27,1.27,0,0,0-.32-.31,8.07,8.07,0,0,0-.87-.48,4.06,4.06,0,0,1-.92-.59,2.21,2.21,0,0,1-.49-.66,2,2,0,0,1-.18-.88,1.9,1.9,0,0,1,.6-1.49,2.39,2.39,0,0,1,1.66-.54,3.69,3.69,0,0,1,1,.13,6.55,6.55,0,0,1,1,.37l-.46,1.18a6.41,6.41,0,0,0-.88-.33,2.67,2.67,0,0,0-.69-.09.87.87,0,0,0-.62.2.74.74,0,0,0-.13.87,1,1,0,0,0,.28.29,8.48,8.48,0,0,0,.9.5,3.59,3.59,0,0,1,1.29,1A2,2,0,0,1,123.26,56.88Z"/><path class="cls-1" d="M124.47,58.86V51.72h1.42v7.14Z"/><path class="cls-1" d="M130.11,54.85h2.65v3.7a7,7,0,0,1-1.21.31,7.43,7.43,0,0,1-1.16.09,2.85,2.85,0,0,1-2.31-.95,4.13,4.13,0,0,1-.8-2.73,3.74,3.74,0,0,1,.93-2.7,3.39,3.39,0,0,1,2.57-1,4.7,4.7,0,0,1,2,.44l-.47,1.21a3.19,3.19,0,0,0-1.52-.39,1.83,1.83,0,0,0-1.47.66,2.67,2.67,0,0,0-.55,1.77,3,3,0,0,0,.45,1.77,1.5,1.5,0,0,0,1.3.61,4.33,4.33,0,0,0,.9-.1V56.11h-1.27Z"/><path class="cls-1" d="M140.28,58.86h-1.8l-2.91-5.4h0q.09,1.43.09,2v3.36h-1.27V51.72h1.79l2.9,5.35h0q-.07-1.39-.07-2V51.72h1.28Z"/><path class="cls-1" d="M155.82,56.12v2.74h-1.4V51.72h1.92a3.09,3.09,0,0,1,2,.53,2,2,0,0,1,.64,1.61,2,2,0,0,1-.32,1.12,2.16,2.16,0,0,1-.91.77q1.49,2.41,1.94,3.11h-1.55l-1.57-2.74Zm0-1.23h.45a1.62,1.62,0,0,0,1-.24.88.88,0,0,0,.32-.75.8.8,0,0,0-.32-.72,1.83,1.83,0,0,0-1-.21h-.42Z"/><path class="cls-1" d="M164.31,58.86h-3.79V51.72h3.79V53h-2.4v1.57h2.23v1.24h-2.23v1.84h2.4Z"/><path class="cls-1" d="M170.24,54a2.27,2.27,0,0,1-.67,1.76,2.7,2.7,0,0,1-1.89.61h-.6v2.54h-1.4V51.72h2.1a2.65,2.65,0,0,1,1.82.56A2.12,2.12,0,0,1,170.24,54Zm-3.15,1.13h.46a1.45,1.45,0,0,0,1-.28,1,1,0,0,0,.32-.8,1,1,0,0,0-.27-.79,1.19,1.19,0,0,0-.84-.25h-.63Z"/><path class="cls-1" d="M175.28,58.86h-3.79V51.72h3.79V53h-2.4v1.57h2.23v1.24h-2.23v1.84h2.4Z"/><path class="cls-1" d="M180.68,58.86l-.48-1.7h-2.4l-.48,1.7h-1.5l2.33-7.17h1.71l2.33,7.17Zm-.81-3-.75-2.61Q179,53,179,52.8q-.15.62-.85,3.09Z"/><path class="cls-1" d="M185.56,58.86h-1.4V53h-1.79V51.72h5V53h-1.79Z"/><path class="cls-1" d="M24.24,58.86H20.13V51.72h4.11V53h-2.6v1.57h2.42v1.24H21.64v1.84h2.6Z"/><path class="cls-1" d="M30.1,58.86l-.52-1.7H27l-.52,1.7H24.83l2.52-7.17H29.2l2.53,7.17Zm-.88-3-.81-2.61q-.09-.3-.13-.48-.16.62-.92,3.09Z"/><path class="cls-1" d="M35.38,58.86H33.87V53H31.93V51.72h5.39V53H35.38Z"/></svg>