<svg id="Layer_1" data-name="Layer 1" xmlns="http://www.w3.org/2000/svg" width="1080" height="740.06" viewBox="0 0 1080 740.06"><defs><style>.cls-1{fill:#fff;}.cls-2{fill:#515050;}.cls-3{fill:#f36f5e;}</style></defs><title>finalbg</title><rect class="cls-1" x="0.01" width="1080" height="97"/><rect class="cls-2" y="462.72" width="1080" height="277.34"/><g id="Layer_2" data-name="Layer 2"><g id="Layer_1-2" data-name="Layer 1-2"><path class="cls-3" d="M516.5,553.72a55.36,55.36,0,0,1-1.25,8.26,64.88,64.88,0,0,1-2.67,8.47c-2.31,5.77-8.3,15.3-18,25.65a119.16,119.16,0,0,1,9.13,10.17c2.15,2.69,5.06,6.91,9.11,13.1a282,282,0,0,1,24.6,46.35V606.58a11,11,0,0,1-8-11.52c.64-5.92,6.5-9.94,12.14-9.35,4.92.52,9.58,4.53,9.84,10a10.83,10.83,0,0,1-8,10.8v59.21a208.92,208.92,0,0,1,42.09-70.29A72.12,72.12,0,0,1,564,553.72Z"/><polygon class="cls-3" points="494.59 110.09 0 68 0 522.3 494.59 596.09 540 564.3 585.41 595.42 1080 522.3 1080 68 585.41 109.42 540 82.83 494.59 110.09"/><path class="cls-1" d="M516.5,67.72A55.36,55.36,0,0,1,515.25,76a64.88,64.88,0,0,1-2.67,8.47c-2.31,5.77-8.3,15.3-18,25.65a119.16,119.16,0,0,1,9.13,10.17c2.15,2.69,5.06,6.91,9.11,13.1a282,282,0,0,1,24.6,46.35V120.58a11,11,0,0,1-8-11.52c.64-5.92,6.5-9.94,12.14-9.35,4.92.52,9.58,4.53,9.84,10a10.83,10.83,0,0,1-8,10.8v59.21a208.92,208.92,0,0,1,42.06-70.3A72.08,72.08,0,0,1,564,67.72Z"/></g></g></svg>