<?xml version="1.0" encoding="utf-8"?>
<!-- Generator: Adobe Illustrator 20.0.0, SVG Export Plug-In . SVG Version: 6.00 Build 0)  -->
<svg version="1.1" id="Layer_1" xmlns="http://www.w3.org/2000/svg" xmlns:xlink="http://www.w3.org/1999/xlink" x="0px" y="0px"
	 viewBox="0 0 1080 1016.8" style="enable-background:new 0 0 1080 1016.8;" xml:space="preserve">
<style type="text/css">
	.st0{fill:#FFFFFF;}
	.st1{fill:#515050;}
	.st2{fill:#F36F5E;}
</style>
<rect x="0" class="st0" width="1080" height="165.7"/>
<rect y="531.4" class="st1" width="1080" height="485.4"/>
<title>finalbackground</title>
<g id="Layer_2">
	<g id="Layer_1-2">
		<path class="st2" d="M510.1,755.7c-0.3,3.5-0.8,7.1-1.6,10.5c-0.9,3.7-2,7.3-3.4,10.8c-2.9,7.4-10.6,19.5-22.9,32.7
			c4.1,4.1,8,8.4,11.6,13c2.7,3.4,6.4,8.8,11.6,16.7c12.3,18.7,22.8,38.4,31.3,59.1V823c-6.5-1.8-10.8-8-10.3-14.7
			c0.8-7.5,8.3-12.7,15.5-11.9c6.3,0.7,12.2,5.8,12.5,12.7c0.2,6.4-4,12.1-10.2,13.8v75.4c11.8-33.1,30-63.5,53.6-89.6
			c-14.8-14.2-24.4-32.9-27.3-53.1H510.1z"/>
		<polygon class="st2" points="482.1,190.4 -148.1,136.8 -148.1,715.6 482.1,809.7 540,769.2 597.9,808.8 1228.1,715.6 
			1228.1,136.8 597.9,189.5 540,155.7 		"/>
		<path class="st0" d="M510.1,136.4c-0.3,3.5-0.8,7.1-1.6,10.5c-0.9,3.7-2,7.3-3.4,10.8c-2.9,7.4-10.6,19.5-22.9,32.7
			c4.1,4.1,8,8.4,11.6,13c2.7,3.4,6.4,8.8,11.6,16.7c12.3,18.7,22.8,38.4,31.3,59.1v-75.4c-6.5-1.8-10.8-8-10.3-14.7
			c0.8-7.5,8.3-12.7,15.5-11.9c6.3,0.7,12.2,5.8,12.5,12.7c0.2,6.4-4,12.1-10.2,13.8v75.4c11.8-33.1,30-63.5,53.6-89.6
			c-8.7-8.4-15.7-18.5-20.6-29.6c-3.3-7.5-5.5-15.4-6.7-23.5H510.1z"/>
	</g>
</g>
</svg>
