<svg id="Layer_1" data-name="Layer 1" xmlns="http://www.w3.org/2000/svg" width="1080" height="860.79" viewBox="0 0 1080 860.79">
  <defs>
    <style>
      .cls-1 {
        fill: #fff;
      }

      .cls-2 {
        fill: #515050;
      }

      .cls-3 {
        fill: #f36f5e;
      }
    </style>
  </defs>
  <title>finalbg</title>
  <rect class="cls-1" x="0.01" width="1080" height="165.68"/>
  <rect class="cls-2" y="531.4" width="1080" height="329.4"/>
  <g id="Layer_2" data-name="Layer 2">
    <g id="Layer_1-2" data-name="Layer 1-2">
      <path class="cls-3" d="M516.5,622.4a55.36,55.36,0,0,1-1.25,8.26,64.88,64.88,0,0,1-2.67,8.47c-2.31,5.77-8.3,15.3-18,25.65a119.16,119.16,0,0,1,9.13,10.17c2.15,2.69,5.06,6.91,9.11,13.1a282,282,0,0,1,24.6,46.35V675.26a11,11,0,0,1-8-11.52c.64-5.92,6.5-9.94,12.14-9.35,4.92.52,9.58,4.53,9.84,10a10.83,10.83,0,0,1-8,10.8V734.4a208.92,208.92,0,0,1,42.09-70.29A72.12,72.12,0,0,1,564,622.4Z"/>
      <polygon class="cls-3" points="494.59 178.77 0 136.68 0 590.98 494.59 664.77 540 632.98 585.41 664.1 1080 590.98 1080 136.68 585.41 178.1 540 151.51 494.59 178.77"/>
      <path class="cls-1" d="M516.5,136.4a55.36,55.36,0,0,1-1.25,8.26,64.88,64.88,0,0,1-2.67,8.47c-2.31,5.77-8.3,15.3-18,25.65a119.16,119.16,0,0,1,9.13,10.17c2.15,2.69,5.06,6.91,9.11,13.1a282,282,0,0,1,24.6,46.35V189.26a11,11,0,0,1-8-11.52c.64-5.92,6.5-9.94,12.14-9.35,4.92.52,9.58,4.53,9.84,10a10.83,10.83,0,0,1-8,10.8V248.4a208.92,208.92,0,0,1,42.06-70.3A72.08,72.08,0,0,1,564,136.4Z"/>
    </g>
  </g>
</svg>
