<svg id="Layer_1" data-name="Layer 1" xmlns="http://www.w3.org/2000/svg" width="1080" height="1016.78" viewBox="0 0 1080 1016.78">
  <defs>
    <style>
      .cls-1 {
        fill: #fff;
      }

      .cls-2 {
        fill: #515050;
      }

      .cls-3 {
        fill: #f36f5e;
      }
    </style>
  </defs>
  <title>finalbg2</title>
  <rect class="cls-1" x="0.01" width="1080" height="165.68"/>
  <rect class="cls-2" y="531.4" width="1080" height="485.38"/>
  <g id="Layer_2" data-name="Layer 2">
    <g id="Layer_1-2" data-name="Layer 1-2">
      <path class="cls-3" d="M510.06,755.68a70.54,70.54,0,0,1-1.59,10.53,82.68,82.68,0,0,1-3.4,10.79c-2.94,7.35-10.58,19.5-22.94,32.68a151.84,151.84,0,0,1,11.63,13c2.74,3.43,6.45,8.81,11.61,16.69a359.33,359.33,0,0,1,31.35,59.06V823a14,14,0,0,1-10.26-14.68c.82-7.54,8.28-12.67,15.47-11.91,6.27.66,12.21,5.77,12.54,12.74a13.8,13.8,0,0,1-10.19,13.76V898.4a266.22,266.22,0,0,1,53.63-89.57,91.9,91.9,0,0,1-27.32-53.15Z"/>
      <polygon class="cls-3" points="482.14 190.39 -148.09 136.75 -148.09 715.64 482.14 809.67 540 769.16 597.86 808.82 1228.09 715.64 1228.09 136.75 597.86 189.53 540 155.65 482.14 190.39"/>
      <path class="cls-1" d="M510.06,136.4a70.54,70.54,0,0,1-1.59,10.53,82.68,82.68,0,0,1-3.4,10.79c-2.94,7.35-10.58,19.5-22.94,32.68a151.84,151.84,0,0,1,11.63,13c2.74,3.43,6.45,8.81,11.61,16.69a359.33,359.33,0,0,1,31.35,59.06V203.75a14,14,0,0,1-10.26-14.68c.82-7.54,8.28-12.67,15.47-11.91,6.27.66,12.21,5.77,12.54,12.74a13.8,13.8,0,0,1-10.19,13.76v75.45a266.22,266.22,0,0,1,53.59-89.58,91.84,91.84,0,0,1-27.28-53.14Z"/>
    </g>
  </g>
</svg>
