<svg id="Layer_1" data-name="Layer 1" xmlns="http://www.w3.org/2000/svg" xmlns:xlink="http://www.w3.org/1999/xlink" viewBox="0 0 609.5 576.58"><defs><style>.cls-1,.cls-2,.cls-3{fill:none;}.cls-1{clip-rule:evenodd;}.cls-3{fill-rule:evenodd;}.cls-4{clip-path:url(#clip-path);}.cls-5{clip-path:url(#clip-path-2);}.cls-6{clip-path:url(#clip-path-3);}.cls-7{clip-path:url(#clip-path-4);}.cls-8{clip-path:url(#clip-path-5);}.cls-9{clip-path:url(#clip-path-6);}.cls-10{clip-path:url(#clip-path-7);}.cls-11{clip-path:url(#clip-path-8);}.cls-12{clip-path:url(#clip-path-9);}.cls-13{clip-path:url(#clip-path-10);}.cls-14{clip-path:url(#clip-path-11);}.cls-15{clip-path:url(#clip-path-12);}.cls-16{clip-path:url(#clip-path-13);}.cls-17{clip-path:url(#clip-path-14);}.cls-18{clip-path:url(#clip-path-15);}.cls-19{clip-path:url(#clip-path-16);}.cls-20{clip-path:url(#clip-path-17);}.cls-21{clip-path:url(#clip-path-18);}.cls-22{clip-path:url(#clip-path-19);}.cls-23{clip-path:url(#clip-path-20);}.cls-24{clip-path:url(#clip-path-21);}.cls-25{clip-path:url(#clip-path-22);}.cls-26{clip-path:url(#clip-path-23);}.cls-27{clip-path:url(#clip-path-24);}.cls-28{clip-path:url(#clip-path-25);}.cls-29{clip-path:url(#clip-path-26);}.cls-30{clip-path:url(#clip-path-27);}.cls-31{clip-path:url(#clip-path-28);}.cls-32{clip-path:url(#clip-path-29);}.cls-33{clip-path:url(#clip-path-30);}.cls-34{clip-path:url(#clip-path-31);}.cls-35{clip-path:url(#clip-path-32);}.cls-36{clip-path:url(#clip-path-33);}.cls-37{clip-path:url(#clip-path-34);}.cls-38{clip-path:url(#clip-path-35);}.cls-39{clip-path:url(#clip-path-36);}.cls-40{clip-path:url(#clip-path-37);}.cls-41{clip-path:url(#clip-path-39);}.cls-42{clip-path:url(#clip-path-41);}.cls-43{clip-path:url(#clip-path-42);}.cls-44{clip-path:url(#clip-path-43);}.cls-45{clip-path:url(#clip-path-44);}.cls-46{clip-path:url(#clip-path-45);}.cls-47{clip-path:url(#clip-path-46);}.cls-48{clip-path:url(#clip-path-47);}.cls-49{clip-path:url(#clip-path-48);}.cls-50{clip-path:url(#clip-path-49);}.cls-51{clip-path:url(#clip-path-50);}.cls-52{clip-path:url(#clip-path-51);}.cls-53{clip-path:url(#clip-path-52);}.cls-54{clip-path:url(#clip-path-53);}.cls-55{clip-path:url(#clip-path-54);}.cls-56{clip-path:url(#clip-path-55);}.cls-57{clip-path:url(#clip-path-56);}.cls-58{clip-path:url(#clip-path-57);}.cls-59{clip-path:url(#clip-path-58);}.cls-60{clip-path:url(#clip-path-59);}.cls-61{clip-path:url(#clip-path-60);}.cls-62{clip-path:url(#clip-path-61);}.cls-63{clip-path:url(#clip-path-62);}.cls-64{clip-path:url(#clip-path-63);}.cls-65{clip-path:url(#clip-path-64);}.cls-66{clip-path:url(#clip-path-65);}.cls-67{clip-path:url(#clip-path-66);}.cls-68{clip-path:url(#clip-path-67);}.cls-69{clip-path:url(#clip-path-68);}.cls-70{clip-path:url(#clip-path-69);}.cls-71{clip-path:url(#clip-path-70);}.cls-72{clip-path:url(#clip-path-71);}.cls-73{clip-path:url(#clip-path-72);}.cls-74{clip-path:url(#clip-path-73);}.cls-75{clip-path:url(#clip-path-74);}.cls-76{clip-path:url(#clip-path-75);}.cls-77{clip-path:url(#clip-path-76);}.cls-78{clip-path:url(#clip-path-77);}.cls-79{clip-path:url(#clip-path-78);}.cls-80{clip-path:url(#clip-path-79);}.cls-81{clip-path:url(#clip-path-80);}.cls-82{clip-path:url(#clip-path-81);}.cls-83{clip-path:url(#clip-path-82);}.cls-84{clip-path:url(#clip-path-83);}.cls-85{clip-path:url(#clip-path-84);}.cls-86{clip-path:url(#clip-path-86);}.cls-87{clip-path:url(#clip-path-87);}.cls-88{clip-path:url(#clip-path-88);}.cls-89{clip-path:url(#clip-path-89);}.cls-90{clip-path:url(#clip-path-90);}.cls-91{clip-path:url(#clip-path-91);}.cls-92{clip-path:url(#clip-path-92);}.cls-93{clip-path:url(#clip-path-93);}.cls-94{clip-path:url(#clip-path-94);}.cls-95{clip-path:url(#clip-path-95);}.cls-96{clip-path:url(#clip-path-96);}.cls-97{clip-path:url(#clip-path-97);}.cls-98{clip-path:url(#clip-path-98);}.cls-99{clip-path:url(#clip-path-99);}.cls-100{clip-path:url(#clip-path-100);}.cls-101{clip-path:url(#clip-path-101);}.cls-102{clip-path:url(#clip-path-102);}.cls-103{clip-path:url(#clip-path-103);}.cls-104{clip-path:url(#clip-path-104);}.cls-105{clip-path:url(#clip-path-105);}.cls-106{clip-path:url(#clip-path-106);}.cls-107{clip-path:url(#clip-path-107);}.cls-108{clip-path:url(#clip-path-108);}.cls-109{clip-path:url(#clip-path-109);}.cls-110{clip-path:url(#clip-path-110);}.cls-111{clip-path:url(#clip-path-111);}.cls-112{clip-path:url(#clip-path-112);}.cls-113{clip-path:url(#clip-path-113);}.cls-114{clip-path:url(#clip-path-114);}.cls-115{clip-path:url(#clip-path-115);}.cls-116{clip-path:url(#clip-path-116);}.cls-117{clip-path:url(#clip-path-117);}.cls-118{clip-path:url(#clip-path-118);}.cls-119{clip-path:url(#clip-path-119);}.cls-120{clip-path:url(#clip-path-120);}.cls-121{clip-path:url(#clip-path-121);}.cls-122{clip-path:url(#clip-path-122);}.cls-123{clip-path:url(#clip-path-123);}.cls-124{clip-path:url(#clip-path-124);}.cls-125{clip-path:url(#clip-path-125);}.cls-126{clip-path:url(#clip-path-126);}.cls-127{clip-path:url(#clip-path-127);}.cls-128{clip-path:url(#clip-path-128);}.cls-129{clip-path:url(#clip-path-129);}.cls-130{clip-path:url(#clip-path-130);}.cls-131{clip-path:url(#clip-path-131);}.cls-132{clip-path:url(#clip-path-132);}.cls-133{clip-path:url(#clip-path-133);}.cls-134{clip-path:url(#clip-path-134);}.cls-135{clip-path:url(#clip-path-135);}.cls-136{clip-path:url(#clip-path-136);}.cls-137{clip-path:url(#clip-path-137);}.cls-138{clip-path:url(#clip-path-138);}.cls-139{clip-path:url(#clip-path-139);}.cls-140{clip-path:url(#clip-path-140);}.cls-141{clip-path:url(#clip-path-141);}.cls-142{clip-path:url(#clip-path-142);}.cls-143{clip-path:url(#clip-path-143);}.cls-144{clip-path:url(#clip-path-144);}.cls-145{clip-path:url(#clip-path-145);}.cls-146{clip-path:url(#clip-path-146);}.cls-147{clip-path:url(#clip-path-147);}.cls-148{clip-path:url(#clip-path-148);}.cls-149{clip-path:url(#clip-path-149);}.cls-150{clip-path:url(#clip-path-150);}.cls-151{clip-path:url(#clip-path-151);}.cls-152{clip-path:url(#clip-path-152);}.cls-153{clip-path:url(#clip-path-153);}.cls-154{clip-path:url(#clip-path-154);}.cls-155{clip-path:url(#clip-path-155);}.cls-156{clip-path:url(#clip-path-156);}.cls-157{clip-path:url(#clip-path-157);}.cls-158{clip-path:url(#clip-path-158);}.cls-159{clip-path:url(#clip-path-159);}.cls-160{clip-path:url(#clip-path-160);}.cls-161{clip-path:url(#clip-path-161);}.cls-162{clip-path:url(#clip-path-162);}.cls-163{clip-path:url(#clip-path-163);}.cls-164{clip-path:url(#clip-path-164);}.cls-165{clip-path:url(#clip-path-165);}.cls-166{clip-path:url(#clip-path-166);}.cls-167{clip-path:url(#clip-path-167);}.cls-168{clip-path:url(#clip-path-168);}.cls-169{clip-path:url(#clip-path-169);}.cls-170{clip-path:url(#clip-path-170);}.cls-171{clip-path:url(#clip-path-171);}.cls-172{clip-path:url(#clip-path-172);}.cls-173{clip-path:url(#clip-path-173);}.cls-174{clip-path:url(#clip-path-174);}.cls-175{clip-path:url(#clip-path-175);}.cls-176{clip-path:url(#clip-path-176);}.cls-177{clip-path:url(#clip-path-177);}.cls-178{clip-path:url(#clip-path-178);}.cls-179{clip-path:url(#clip-path-179);}.cls-180{clip-path:url(#clip-path-180);}.cls-181{clip-path:url(#clip-path-181);}.cls-182{clip-path:url(#clip-path-182);}.cls-183{clip-path:url(#clip-path-183);}.cls-184{clip-path:url(#clip-path-184);}.cls-185{clip-path:url(#clip-path-185);}.cls-186{clip-path:url(#clip-path-186);}.cls-187{clip-path:url(#clip-path-187);}.cls-188{clip-path:url(#clip-path-188);}.cls-189{clip-path:url(#clip-path-189);}.cls-190{clip-path:url(#clip-path-190);}.cls-191{fill:#009894;}.cls-192{fill:#bce3e0;}</style><clipPath id="clip-path"><polygon class="cls-1" points="-214.67 126.12 -203.07 131.78 -208.58 145.66 -214.23 151.11 -214.41 140.86 -214.67 126.12"/></clipPath><clipPath id="clip-path-2"><polygon class="cls-1" points="-237.91 149.37 -231.79 139.12 -218.45 144.81 -213.39 150.22 -223.44 149.87 -237.91 149.37"/></clipPath><clipPath id="clip-path-3"><polygon class="cls-1" points="-187.98 150.04 -194.08 161.97 -208.41 156 -213.98 150.04 -203.32 150.04 -187.98 150.04"/></clipPath><clipPath id="clip-path-4"><polygon class="cls-1" points="-213.77 175.26 -224.12 169.22 -218.65 155.53 -213.33 150.27 -213.51 160.52 -213.77 175.26"/></clipPath><clipPath id="clip-path-5"><polygon class="cls-1" points="-214.16 125.54 -214.06 131.17 -213.73 150.26 -219.01 145.44 -225.55 131.38 -214.16 125.54"/></clipPath><clipPath id="clip-path-6"><polygon class="cls-1" points="-238.05 149.29 -232.42 149.49 -213.34 150.15 -218.43 155.17 -232.82 160.97 -238.05 149.29"/></clipPath><clipPath id="clip-path-7"><polygon class="cls-1" points="-213.81 174.57 -213.81 168.88 -213.81 149.57 -208.62 154.54 -202.33 168.88 -213.81 174.57"/></clipPath><clipPath id="clip-path-8"><polygon class="cls-1" points="-188.49 150.19 -194.12 150.19 -213.21 150.19 -208.3 144.99 -194.12 138.7 -188.49 150.19"/></clipPath><clipPath id="clip-path-9"><polygon class="cls-1" points="-341.45 426.29 -335.45 444.29 -347.45 444.29 -341.45 426.29"/></clipPath><clipPath id="clip-path-10"><polygon class="cls-1" points="-316.02 389.76 -310.89 398.16 -309.82 399.91 -313.68 406.42 -319.68 396.36 -316.02 389.76"/></clipPath><clipPath id="clip-path-11"><polygon class="cls-1" points="-319.72 396.29 -314.58 404.7 -313.52 406.44 -317.38 412.95 -323.38 402.89 -319.72 396.29"/></clipPath><clipPath id="clip-path-12"><polygon class="cls-1" points="-326.72 408.29 -321.58 416.7 -320.52 418.44 -324.38 424.95 -330.38 414.89 -326.72 408.29"/></clipPath><clipPath id="clip-path-13"><path class="cls-1" d="M-333.56,420.29l5,8.53,1,1.77-4.71,7.2-5.8-10.22Z"/></clipPath><clipPath id="clip-path-14"><polygon class="cls-1" points="-323.3 402.29 -318.17 410.7 -317.1 412.44 -320.96 418.95 -326.96 408.89 -323.3 402.29"/></clipPath><clipPath id="clip-path-15"><polygon class="cls-1" points="-330.52 414.29 -325.39 422.7 -324.32 424.44 -328.18 430.95 -334.18 420.89 -330.52 414.29"/></clipPath><clipPath id="clip-path-16"><polygon class="cls-1" points="-337.72 427.29 -332.58 435.7 -331.52 437.44 -335.38 443.95 -341.38 433.89 -337.72 427.29"/></clipPath><clipPath id="clip-path-17"><polygon class="cls-1" points="-372.73 399.77 -366.13 389.22 -358.07 389.47 -369.2 407.28 -372.73 399.77"/></clipPath><clipPath id="clip-path-18"><polygon class="cls-1" points="-369.67 406.04 -359.26 389.39 -351.15 389.56 -366 413.32 -369.67 406.04"/></clipPath><clipPath id="clip-path-19"><polygon class="cls-1" points="-366.26 412.24 -353.36 389.85 -345.4 389.87 -362.39 418.7 -366.26 412.24"/></clipPath><clipPath id="clip-path-20"><polygon class="cls-1" points="-362.72 418.8 -345.93 389.88 -337.19 389.74 -358.9 426.05 -362.72 418.8"/></clipPath><clipPath id="clip-path-21"><polygon class="cls-1" points="-359.38 424.31 -337.85 390.27 -329.23 390.46 -356.05 431.46 -359.38 424.31"/></clipPath><clipPath id="clip-path-22"><polygon class="cls-1" points="-355.81 430.2 -330.79 389.93 -321.7 390.19 -351.05 437.68 -355.81 430.2"/></clipPath><clipPath id="clip-path-23"><polygon class="cls-1" points="-351.89 437.29 -322.05 389.89 -315.77 389.64 -347.55 444.58 -351.89 437.29"/></clipPath><clipPath id="clip-path-24"><polygon class="cls-1" points="-340.95 481.68 -356.01 491.19 -351.54 473.31 -365.55 461.77 -346.99 461.77 -340.95 446.29 -334.88 461.77 -316.5 461.77 -330.8 473.31 -326.4 491.19 -340.95 481.68"/></clipPath><clipPath id="clip-path-25"><rect class="cls-2" x="-366.42" y="370.29" width="10" height="10" transform="translate(-398.48 -144.41) rotate(-48)"/></clipPath><clipPath id="clip-path-26"><rect class="cls-2" x="-326.39" y="370.35" width="10" height="10" transform="translate(-385.28 -114.65) rotate(-48)"/></clipPath><clipPath id="clip-path-27"><rect class="cls-2" x="-346.39" y="370.35" width="10" height="10" transform="translate(-391.9 -129.51) rotate(-48)"/></clipPath><clipPath id="clip-path-28"><ellipse class="cls-2" cx="-364.95" cy="295.29" rx="8.5" ry="8"/></clipPath><clipPath id="clip-path-29"><ellipse class="cls-2" cx="-317.91" cy="295.29" rx="8.5" ry="8"/></clipPath><clipPath id="clip-path-30"><circle class="cls-2" cx="-340.95" cy="335.79" r="27.5"/></clipPath><clipPath id="clip-path-31"><rect class="cls-2" x="-293.45" y="278.29" width="16" height="50"/></clipPath><clipPath id="clip-path-32"><polygon class="cls-1" points="-167.95 284.29 -144.65 300.87 -153.55 327.71 -182.35 327.71 -191.25 300.87 -167.95 284.29"/></clipPath><clipPath id="clip-path-33"><polygon class="cls-1" points="-467.45 323.79 -475.1 327.81 -473.63 319.3 -479.82 313.27 -471.27 312.03 -467.45 304.29 -463.63 312.03 -455.09 313.27 -461.27 319.3 -459.81 327.81 -467.45 323.79"/></clipPath><clipPath id="clip-path-34"><polygon class="cls-1" points="-435.45 322.79 -443.1 326.81 -441.63 318.3 -447.82 312.27 -439.27 311.03 -435.45 303.29 -431.63 311.03 -423.09 312.27 -429.27 318.3 -427.81 326.81 -435.45 322.79"/></clipPath><clipPath id="clip-path-35"><polygon class="cls-1" points="-401.45 322.79 -409.1 326.81 -407.63 318.3 -413.82 312.27 -405.27 311.03 -401.45 303.29 -397.63 311.03 -389.09 312.27 -395.27 318.3 -393.81 326.81 -401.45 322.79"/></clipPath><clipPath id="clip-path-36"><path class="cls-1" d="M-228.5,329.7l-11.84,0,31.61,13,21.39,8.78V254.34l-9.48-4L-228.43,237l-6.06-2.56-6.05,2.59-31.2,13.33-9.41,4v97.21l21.45-8.92Zm-11.9-28.62-31.2,13,21.45,14.31V264.62l-9.41,14.25,31.2-13.33-12.11,0,31.61,13.33-9.48-14.28v63.74L-197,314l-31.61-13-5.92-2.43Zm-60.74-86.62h133.8V371.59h-133.8Z"/></clipPath><clipPath id="clip-path-37"><polygon class="cls-1" points="-234.45 315.39 -265.65 328.36 -265.65 305.55 -265.65 282.04 -265.65 264.62 -234.45 251.29 -202.85 264.62 -202.85 282.04 -202.85 305.55 -202.85 328.36 -234.45 315.39"/></clipPath><clipPath id="clip-path-39"><rect class="cls-2" x="-479.45" y="273.29" width="90" height="23"/></clipPath><clipPath id="clip-path-41"><rect class="cls-2" x="-472.45" y="280.29" width="8" height="9"/></clipPath><clipPath id="clip-path-42"><rect class="cls-2" x="-459.45" y="280.29" width="8" height="9"/></clipPath><clipPath id="clip-path-43"><rect class="cls-2" x="-446.45" y="280.29" width="51" height="9"/></clipPath><clipPath id="clip-path-44"><polygon class="cls-1" points="-514.88 284.29 -491.27 307.02 -514.58 330.91 -538.37 307.75 -514.88 284.29"/></clipPath><clipPath id="clip-path-45"><polygon class="cls-1" points="-142.69 229.29 -136.96 239.51 -143.64 252.79 -150.03 243.09 -142.69 229.29"/></clipPath><clipPath id="clip-path-46"><polygon class="cls-1" points="-489.64 229.19 -484.1 239.4 -490.7 251.79 -496.88 242.04 -489.64 229.19"/></clipPath><clipPath id="clip-path-47"><polygon class="cls-1" points="-496.31 241.63 -490.07 251.21 -499.13 266.53 -505.17 256.12 -496.31 241.63"/></clipPath><clipPath id="clip-path-48"><polygon class="cls-1" points="-150.22 243.19 -143.75 252.98 -152.82 268.44 -159.11 257.8 -150.22 243.19"/></clipPath><clipPath id="clip-path-49"><polygon class="cls-1" points="-505.17 255.29 -499.11 266.33 -509.03 284.29 -521 284.29 -505.17 255.29"/></clipPath><clipPath id="clip-path-50"><polygon class="cls-1" points="-158.44 257.29 -152.19 268.08 -161.7 284.29 -174.05 284.29 -158.44 257.29"/></clipPath><clipPath id="clip-path-51"><polygon class="cls-1" points="-540.05 230.13 -525.16 229.61 -538.56 253.25 -546.68 239.25 -540.05 230.13"/></clipPath><clipPath id="clip-path-52"><polygon class="cls-1" points="-192.01 229.68 -177.14 229.19 -190.49 252.75 -198.61 238.77 -192.01 229.68"/></clipPath><clipPath id="clip-path-53"><polygon class="cls-1" points="-525.6 229.29 -504.2 229.22 -528.83 270.58 -538.64 253.03 -525.6 229.29"/></clipPath><clipPath id="clip-path-54"><polygon class="cls-1" points="-177.29 229.36 -155.82 229.57 -181.43 270.85 -190.89 253.07 -177.29 229.36"/></clipPath><clipPath id="clip-path-55"><polygon class="cls-1" points="-504.38 228.91 -489.3 229.54 -521.1 284.29 -528.6 270.5 -504.38 228.91"/></clipPath><clipPath id="clip-path-56"><polygon class="cls-1" points="-157.34 229.04 -142.27 229.68 -174.06 284.43 -181.56 270.64 -157.34 229.04"/></clipPath><clipPath id="clip-path-57"><rect class="cls-2" x="-486.79" y="161.25" width="18" height="9.19" transform="translate(-249.3 -285.35) rotate(-44)"/></clipPath><clipPath id="clip-path-58"><polygon class="cls-1" points="-480.17 151.47 -492.25 139.39 -485.75 132.9 -468.08 150.57 -480.17 151.47"/></clipPath><clipPath id="clip-path-59"><rect class="cls-2" x="-474.82" y="133.88" width="25" height="9.19" transform="translate(-225.95 -282.29) rotate(-44)"/></clipPath><clipPath id="clip-path-60"><polygon class="cls-1" points="-467.5 150.37 -487.07 169.27 -491.85 162.69 -480.5 151.73 -467.5 150.37"/></clipPath><clipPath id="clip-path-61"><rect class="cls-2" x="-466.76" y="149.96" width="9.19" height="25" transform="translate(-257.98 -282.84) rotate(-46)"/></clipPath><clipPath id="clip-path-62"><rect class="cls-2" x="-480.61" y="127.63" width="8" height="17" transform="translate(-235.86 -297.15) rotate(-45)"/></clipPath><clipPath id="clip-path-63"><polygon class="cls-1" points="-469.1 150.7 -451.62 131.91 -445.27 138.48 -456.84 149.66 -469.1 150.7"/></clipPath><clipPath id="clip-path-64"><polygon class="cls-1" points="-450.32 167.75 -468.9 150.45 -456.87 150.04 -444.71 161.97 -450.32 167.75"/></clipPath><clipPath id="clip-path-65"><polygon class="cls-1" points="-341.63 138.78 -346.05 136.52 -346.05 79.78 -337.21 79.78 -337.21 136.52 -341.63 138.78"/></clipPath><clipPath id="clip-path-66"><polygon class="cls-1" points="-405.7 158.29 -408.2 157.27 -408.2 98.29 -403.2 98.29 -403.2 157.27 -405.7 158.29"/></clipPath><clipPath id="clip-path-67"><circle class="cls-2" cx="-405.95" cy="184.79" r="25.5"/></clipPath><clipPath id="clip-path-68"><circle class="cls-2" cx="-276.95" cy="183.79" r="25.5"/></clipPath><clipPath id="clip-path-69"><circle class="cls-2" cx="-341.95" cy="164.79" r="25.5"/></clipPath><clipPath id="clip-path-70"><polygon class="cls-1" points="-376.91 214.74 -368.27 200.92 -314.24 201.4 -327.75 228.96 -368.3 228.83 -376.91 214.74"/></clipPath><clipPath id="clip-path-71"><polygon class="cls-1" points="-357.19 228.67 -355.14 201.03 -313.69 201.03 -305.87 215.37 -313.69 229.15 -357.19 228.67"/></clipPath><clipPath id="clip-path-72"><polygon class="cls-1" points="-371.91 214.88 -365.64 205.79 -316.48 206.16 -316.06 225.52 -365.01 225.32 -371.91 214.88"/></clipPath><clipPath id="clip-path-73"><polygon class="cls-1" points="-310.71 215.85 -315.64 224.82 -364.87 225.4 -365.41 205.28 -316.24 205.58 -310.71 215.85"/></clipPath><clipPath id="clip-path-74"><rect class="cls-2" x="-404.45" y="339.29" width="17.04" height="28"/></clipPath><clipPath id="clip-path-75"><rect class="cls-2" x="-459.45" y="372.29" width="29" height="28"/></clipPath><clipPath id="clip-path-76"><rect class="cls-2" x="-461.45" y="388.29" width="32" height="4.5"/></clipPath><clipPath id="clip-path-77"><rect class="cls-2" x="-461.45" y="395.79" width="32" height="4.5"/></clipPath><clipPath id="clip-path-78"><rect class="cls-2" x="-461.45" y="380.29" width="32" height="4.5"/></clipPath><clipPath id="clip-path-79"><rect class="cls-2" x="-461.45" y="372.29" width="32" height="4.5"/></clipPath><clipPath id="clip-path-80"><rect class="cls-2" x="-416.45" y="372.29" width="28" height="28"/></clipPath><clipPath id="clip-path-81"><rect class="cls-2" x="-416.45" y="406.29" width="28" height="28"/></clipPath><clipPath id="clip-path-82"><rect class="cls-2" x="-515.45" y="372.29" width="28" height="28"/></clipPath><clipPath id="clip-path-83"><rect class="cls-2" x="-512.45" y="339.29" width="28" height="28"/></clipPath><clipPath id="clip-path-84"><rect class="cls-2" x="-487.45" y="372.29" width="28" height="28"/></clipPath><clipPath id="clip-path-86"><rect class="cls-2" x="-210.94" y="373.29" width="29" height="28"/></clipPath><clipPath id="clip-path-87"><polygon class="cls-1" points="-302.45 96.29 -290.45 96.29 -290.45 148.74 -302.45 143.29 -302.45 96.29"/></clipPath><clipPath id="clip-path-88"><polygon class="cls-1" points="-366.45 78.29 -355.45 78.29 -355.45 131.29 -366.45 125.78 -366.45 78.29"/></clipPath><clipPath id="clip-path-89"><polygon class="cls-1" points="-430.45 97.29 -425.45 97.29 -425.45 148.29 -430.45 145.41 -430.45 97.29"/></clipPath><clipPath id="clip-path-90"><polygon class="cls-1" points="-426.45 97.29 -421.45 97.29 -421.45 150.29 -426.45 147.52 -426.45 97.29"/></clipPath><clipPath id="clip-path-91"><polygon class="cls-1" points="-421.45 98.29 -416.45 98.29 -416.45 153.29 -421.45 149.69 -421.45 98.29"/></clipPath><clipPath id="clip-path-92"><polygon class="cls-1" points="-417.45 98.1 -412.45 98.1 -412.45 155.1 -417.45 152.01 -417.45 98.1"/></clipPath><clipPath id="clip-path-93"><polygon class="cls-1" points="-412.45 98.29 -407.45 98.29 -407.45 158.29 -412.45 154.8 -412.45 98.29"/></clipPath><clipPath id="clip-path-94"><polygon class="cls-1" points="-403.45 98.29 -398.45 98.29 -398.45 154.22 -403.45 157.37 -403.45 98.29"/></clipPath><clipPath id="clip-path-95"><polygon class="cls-1" points="-393.45 99.1 -393.45 151.95 -398.45 155 -398.45 99.1 -393.45 99.1"/></clipPath><clipPath id="clip-path-96"><polygon class="cls-1" points="-393.45 99.41 -388.45 99.41 -388.45 149.22 -393.45 152.37 -393.45 99.41"/></clipPath><clipPath id="clip-path-97"><polygon class="cls-1" points="-388.95 99.29 -383.95 99.29 -383.95 147.18 -388.95 149.91 -388.95 99.29"/></clipPath><clipPath id="clip-path-98"><polygon class="cls-1" points="-383.95 97.53 -378.95 97.53 -378.95 145.08 -383.95 147.53 -383.95 97.53"/></clipPath><clipPath id="clip-path-99"><polygon class="cls-1" points="-356.45 79.29 -345.45 79.29 -345.45 137.06 -356.45 130.89 -356.45 79.29"/></clipPath><clipPath id="clip-path-100"><polygon class="cls-1" points="-327.45 79.29 -316.45 79.29 -316.45 126.81 -327.45 132.29 -327.45 79.29"/></clipPath><clipPath id="clip-path-101"><polygon class="cls-1" points="-337.45 79.29 -326.45 79.29 -326.45 131.87 -337.45 136.79 -337.45 79.29"/></clipPath><clipPath id="clip-path-102"><polygon class="cls-1" points="-264.45 96.29 -252.45 96.29 -252.45 143.2 -263.21 148.74 -264.45 96.29"/></clipPath><clipPath id="clip-path-103"><polygon class="cls-1" points="-276.77 154.66 -290.71 148.1 -290.71 97.16 -262.71 97.16 -262.71 148.1 -276.77 154.66"/></clipPath><clipPath id="clip-path-104"><rect class="cls-2" x="-432.97" y="111.61" width="11" height="211.27" transform="translate(-443.71 -261.99) rotate(-65)"/></clipPath><clipPath id="clip-path-105"><rect class="cls-2" x="-437.47" y="121.19" width="11" height="211.27" transform="translate(-454.98 -260.53) rotate(-65)"/></clipPath><clipPath id="clip-path-106"><rect class="cls-2" x="-441.47" y="130.19" width="11" height="211.27" transform="translate(-465.45 -258.96) rotate(-65)"/></clipPath><clipPath id="clip-path-107"><path class="cls-1" d="M-150.2,199.34l-192,85.49-13.79-5.9L-327,266l172.32-76.72Z"/></clipPath><clipPath id="clip-path-108"><polygon class="cls-1" points="-154.2 189.34 -356.02 279.19 -369.45 273.13 -158.68 179.29 -154.2 189.34"/></clipPath><clipPath id="clip-path-109"><polygon class="cls-1" points="-158.71 179.75 -369.21 273.47 -385.87 265.52 -163.19 169.7 -158.71 179.75"/></clipPath><clipPath id="clip-path-110"><polygon class="cls-1" points="-260.51 269.43 -234.49 258.9 -234.49 270.93 -260.51 280.6 -260.51 269.43"/></clipPath><clipPath id="clip-path-111"><polygon class="cls-1" points="-260.51 287.82 -234.49 277.29 -234.49 289.32 -260.51 298.99 -260.51 287.82"/></clipPath><clipPath id="clip-path-112"><polygon class="cls-1" points="-260.45 305.82 -234.44 295.29 -234.44 307.32 -260.45 316.99 -260.45 305.82"/></clipPath><clipPath id="clip-path-113"><polygon class="cls-1" points="-234.61 258.99 -210.15 268.96 -210.51 280.07 -235.03 270.88 -234.61 258.99"/></clipPath><clipPath id="clip-path-114"><polygon class="cls-1" points="-234.61 277.29 -210.15 286.26 -210.51 298.37 -235.03 289.18 -234.61 277.29"/></clipPath><clipPath id="clip-path-115"><polygon class="cls-1" points="-234.75 295.29 -210.29 304.26 -210.64 316.37 -235.16 307.18 -234.75 295.29"/></clipPath><clipPath id="clip-path-116"><circle class="cls-2" cx="-340.45" cy="335.29" r="15"/></clipPath><clipPath id="clip-path-117"><rect class="cls-2" x="-375.45" y="332.29" width="69" height="6"/></clipPath><clipPath id="clip-path-118"><rect class="cls-2" x="-478.45" y="247.29" width="36" height="16"/></clipPath><clipPath id="clip-path-119"><circle class="cls-2" cx="-359.95" cy="214.79" r="3.5"/></clipPath><clipPath id="clip-path-120"><circle class="cls-2" cx="-341.95" cy="289.79" r="2.5"/></clipPath><clipPath id="clip-path-121"><circle class="cls-2" cx="-341.95" cy="303.79" r="2.5"/></clipPath><clipPath id="clip-path-122"><circle class="cls-2" cx="-341.95" cy="296.79" r="2.5"/></clipPath><clipPath id="clip-path-123"><circle class="cls-2" cx="-347.95" cy="214.79" r="3.5"/></clipPath><clipPath id="clip-path-124"><circle class="cls-2" cx="-334.95" cy="214.79" r="3.5"/></clipPath><clipPath id="clip-path-125"><circle class="cls-2" cx="-321.95" cy="214.79" r="3.5"/></clipPath><clipPath id="clip-path-126"><polygon class="cls-1" points="-470.18 255.51 -449.67 255.51 -442.45 263.29 -478.45 263.29 -470.18 255.51"/></clipPath><clipPath id="clip-path-127"><polygon class="cls-1" points="-450.36 255.79 -442.55 247.3 -442.83 263.3 -450.36 255.79"/></clipPath><clipPath id="clip-path-128"><polygon class="cls-1" points="-277.95 327.95 -293.45 327.95 -285.7 320.25 -277.95 327.95"/></clipPath><clipPath id="clip-path-129"><polygon class="cls-1" points="-285.45 319.99 -285.45 285.29 -277.45 279.29 -277.45 328.29 -285.45 328.29 -285.45 319.99"/></clipPath><clipPath id="clip-path-130"><rect class="cls-2" x="-453.45" y="339.29" width="49" height="28"/></clipPath><clipPath id="clip-path-131"><rect class="cls-2" x="-472.45" y="339.29" width="28" height="28"/></clipPath><clipPath id="clip-path-132"><rect class="cls-2" x="-183.45" y="340.29" width="28" height="28"/></clipPath><clipPath id="clip-path-133"><rect class="cls-2" x="-430.45" y="440.29" width="14" height="28"/></clipPath><clipPath id="clip-path-134"><rect class="cls-2" x="-430.45" y="406.29" width="14" height="28"/></clipPath><clipPath id="clip-path-135"><rect class="cls-2" x="-266.45" y="373.29" width="14" height="28"/></clipPath><clipPath id="clip-path-136"><rect class="cls-2" x="-223.45" y="406.29" width="14" height="28"/></clipPath><clipPath id="clip-path-137"><rect class="cls-2" x="-294.45" y="406.29" width="14" height="28"/></clipPath><clipPath id="clip-path-138"><rect class="cls-2" x="-416.45" y="440.29" width="14" height="28"/></clipPath><clipPath id="clip-path-139"><rect class="cls-2" x="-197.45" y="340.29" width="14" height="28"/></clipPath><clipPath id="clip-path-140"><rect class="cls-2" x="-211.45" y="340.29" width="14" height="28"/></clipPath><clipPath id="clip-path-141"><rect class="cls-2" x="-238.45" y="373.29" width="14" height="28"/></clipPath><clipPath id="clip-path-142"><rect class="cls-2" x="-279.45" y="406.29" width="14" height="28"/></clipPath><clipPath id="clip-path-143"><rect class="cls-2" x="-294.45" y="340.29" width="55" height="28"/></clipPath><clipPath id="clip-path-144"><rect class="cls-2" x="-280.45" y="406.29" width="14" height="28"/></clipPath><clipPath id="clip-path-145"><rect class="cls-2" x="-279.45" y="440.29" width="14" height="28"/></clipPath><clipPath id="clip-path-146"><rect class="cls-2" x="-224.45" y="373.29" width="14" height="28"/></clipPath><clipPath id="clip-path-147"><rect class="cls-2" x="-209.45" y="406.29" width="14" height="28"/></clipPath><clipPath id="clip-path-148"><rect class="cls-2" x="-488.45" y="406.29" width="58" height="28"/></clipPath><clipPath id="clip-path-149"><rect class="cls-2" x="-265.45" y="440.29" width="28" height="28"/></clipPath><clipPath id="clip-path-150"><rect class="cls-2" x="-265.45" y="406.29" width="42" height="28"/></clipPath><clipPath id="clip-path-151"><rect class="cls-2" x="-486.45" y="339.29" width="14" height="28"/></clipPath><clipPath id="clip-path-152"><rect class="cls-2" x="-416.45" y="406.29" width="14" height="28"/></clipPath><clipPath id="clip-path-153"><rect class="cls-2" x="-416.45" y="372.29" width="14" height="28"/></clipPath><clipPath id="clip-path-154"><rect class="cls-2" x="-239.45" y="340.29" width="14" height="28"/></clipPath><clipPath id="clip-path-155"><rect class="cls-2" x="-182.45" y="373.29" width="14" height="28"/></clipPath><clipPath id="clip-path-156"><rect class="cls-2" x="-252.45" y="373.29" width="14" height="28"/></clipPath><clipPath id="clip-path-157"><rect class="cls-2" x="-294.45" y="373.29" width="14" height="28"/></clipPath><clipPath id="clip-path-158"><rect class="cls-2" x="-402.45" y="440.29" width="14" height="28"/></clipPath><clipPath id="clip-path-159"><rect class="cls-2" x="-430.45" y="372.29" width="14" height="28"/></clipPath><clipPath id="clip-path-160"><rect class="cls-2" x="-444.45" y="440.29" width="14" height="28"/></clipPath><clipPath id="clip-path-161"><rect class="cls-2" x="-293.45" y="440.29" width="14" height="28"/></clipPath><clipPath id="clip-path-162"><rect class="cls-2" x="-225.45" y="340.29" width="14" height="28"/></clipPath><clipPath id="clip-path-163"><rect class="cls-2" x="-280.45" y="373.29" width="14" height="28"/></clipPath><clipPath id="clip-path-164"><rect class="cls-2" x="-261.45" y="406.29" width="4" height="28"/></clipPath><clipPath id="clip-path-165"><rect class="cls-2" x="-253.95" y="406.29" width="4" height="28"/></clipPath><clipPath id="clip-path-166"><rect class="cls-2" x="-231.45" y="406.29" width="4" height="28"/></clipPath><clipPath id="clip-path-167"><rect class="cls-2" x="-238.45" y="406.29" width="4" height="28"/></clipPath><clipPath id="clip-path-168"><rect class="cls-2" x="-246.5" y="406.29" width="4" height="28"/></clipPath><clipPath id="clip-path-169"><rect class="cls-2" x="-500.93" y="372.29" width="28" height="28"/></clipPath><clipPath id="clip-path-170"><rect class="cls-2" x="-530.45" y="339.29" width="28" height="28"/></clipPath><clipPath id="clip-path-171"><circle class="cls-2" cx="-479.95" cy="420.79" r="2.5"/></clipPath><clipPath id="clip-path-172"><circle class="cls-2" cx="-439.95" cy="420.79" r="2.5"/></clipPath><clipPath id="clip-path-173"><circle class="cls-2" cx="-446.95" cy="420.79" r="2.5"/></clipPath><clipPath id="clip-path-174"><circle class="cls-2" cx="-454.95" cy="420.95" r="2.5"/></clipPath><clipPath id="clip-path-175"><circle class="cls-2" cx="-462.95" cy="420.79" r="2.5"/></clipPath><clipPath id="clip-path-176"><circle class="cls-2" cx="-471.95" cy="420.79" r="2.5"/></clipPath><clipPath id="clip-path-177"><polygon class="cls-1" points="-423.71 349.52 -419.81 353.4 -427.74 353.27 -423.71 349.52"/></clipPath><clipPath id="clip-path-178"><polygon class="cls-1" points="-486.89 383.36 -483.46 387.42 -490.45 387.3 -486.89 383.36"/></clipPath><clipPath id="clip-path-179"><polygon class="cls-1" points="-167.88 350.85 -164.45 354.91 -171.45 354.79 -167.88 350.85"/></clipPath><clipPath id="clip-path-180"><polygon class="cls-1" points="-250.88 450.35 -247.45 454.41 -254.45 454.29 -250.88 450.35"/></clipPath><clipPath id="clip-path-181"><polygon class="cls-1" points="-423.93 358.35 -428.12 353.28 -419.57 353.43 -423.93 358.35"/></clipPath><clipPath id="clip-path-182"><polygon class="cls-1" points="-490.41 387.09 -483.41 387.09 -486.91 391.09 -490.41 387.09"/></clipPath><clipPath id="clip-path-183"><polygon class="cls-1" points="-171.45 354.29 -164.45 354.29 -167.95 358.29 -171.45 354.29"/></clipPath><clipPath id="clip-path-184"><polygon class="cls-1" points="-254.45 454.29 -247.45 454.29 -250.95 458.29 -254.45 454.29"/></clipPath><clipPath id="clip-path-185"><polygon class="cls-1" points="-515.67 274.29 -509.67 284.29 -521.67 284.29 -515.67 274.29"/></clipPath><clipPath id="clip-path-186"><polygon class="cls-1" points="-168.45 274.29 -162.45 284.29 -174.45 284.29 -168.45 274.29"/></clipPath><clipPath id="clip-path-187"><polygon class="cls-1" points="-158.8 257.64 -146.79 236.82 -143.31 240.8 -145.06 243.84 -155.46 261.84 -158.8 257.64"/></clipPath><clipPath id="clip-path-188"><rect class="cls-2" x="-434.45" y="94.29" width="58" height="5"/></clipPath><clipPath id="clip-path-189"><rect class="cls-2" x="-371.45" y="75.29" width="58" height="5"/></clipPath><clipPath id="clip-path-190"><rect class="cls-2" x="-306.45" y="93.29" width="59" height="5"/></clipPath></defs><title>Artboard 2</title><rect class="cls-191" width="609.5" height="576.58"/><rect class="cls-192" x="34.31" y="32.55" width="539.97" height="507.47"/><path class="cls-191" d="M298.41,244.77c35.07.45,58.48,25.48,58.48,25.48,4.73,5,23.33,26.22,21.6,57.87-.23,4.26-2.62,37.46-31.69,58.24-34.48,24.64-73.59,8.38-75.2,7.68C232.47,377,226.26,335.36,226,333.2a48.41,48.41,0,0,0,35.47,23.94c4.87,7.35,13,13,21.45,15.56a53.41,53.41,0,0,0,66.42-68c-9.78-29.13-40.09-35.34-42.68-35.82-16.25-3-39.71.28-50.72,16.93-4.71,7.12-10.84,22.28-2.78,32.76,5.54,7.2,16.81,10.94,26,7,11.07-4.77,12.8-17.87,13.22-21.1,1.89-14.37-7.22-24.84-8.78-26.58a40.5,40.5,0,0,1,8.52-2.35,41.44,41.44,0,0,1,17.6,1,48.24,48.24,0,0,1,7.83,27.05c-.47,17.56-11.48,37.09-31.77,43.86-17.48,5.84-39,.23-50.64-15.44-14.86-19.95-3.59-44.73-1.44-49.53,0,0,9.43-20.91,34.92-31.86A82.51,82.51,0,0,1,283,246.15,83.72,83.72,0,0,1,298.41,244.77Z"/><path class="cls-191" d="M358.65,173.65a51.37,51.37,0,0,0-26-49.76c-19.81-11-44-7.44-60,6.6C255.09,146,250.1,172,258.86,189.88c4,8.08,9.83,12.65,14.07,15.89,20.6,15.71,39.73,11.27,60.55,16.35,30.17,7.36,54.53,32.45,66.11,57,20,42.42,2.28,82.17-.08,88.35-11.63,30.45-40.08,54.09-72.66,61.09s-68.31-2.61-93-24.46c-38.52-34.08-35.76-81.5-35.28-87.63C202.52,266,241.2,239,246.21,235.65a26.7,26.7,0,0,1,9.11,4.65,26.19,26.19,0,0,1,5.64,6.11A54.33,54.33,0,0,1,286,238a104.32,104.32,0,0,0-31.42-27c-2.89-1.6-5.73-3-8.5-4.2-10.65,4.88-37,18.67-55.37,48.78a123,123,0,0,0-17.85,67.81c1,37.71,13.69,75.18,42.75,100.14,28.17,24.21,67,37.12,104.27,32.77S392,430.8,412.41,400.07c16-24.08,25.4-52.66,24.24-81.31-.41-10.12-2.35-47.47-30.32-79.27-5.55-6.31-35.52-40.39-78.47-44.42-.67-.06-4-.23-8.57-.71a119.3,119.3,0,0,1-13.58-1.89c-4.09-1-13.78-3.24-19.22-11.64a24.39,24.39,0,0,1-1.54-23.48c5.16-10.51,18.13-15.84,29.55-12.45,10,3,17.27,12.13,18.2,23.05a74.52,74.52,0,0,1,26,5.69Z"/></svg>